<svg width="13" height="13" viewBox="0 0 13 13" fill="none" xmlns="http://www.w3.org/2000/svg">
<path d="M3.48438 13H0.941406V4.82422H3.48438V13ZM2.19922 3.73047C1.40625 3.73047 0.75 3.04688 0.75 2.22656C0.75 1.43359 1.40625 0.777344 2.19922 0.777344C3.01953 0.777344 3.67578 1.43359 3.67578 2.22656C3.67578 3.04688 3.01953 3.73047 2.19922 3.73047ZM12.9727 13H10.457V9.03516C10.457 8.07812 10.4297 6.875 9.11719 6.875C7.80469 6.875 7.61328 7.88672 7.61328 8.95312V13H5.07031V4.82422H7.50391V5.94531H7.53125C7.88672 5.31641 8.70703 4.63281 9.9375 4.63281C12.5078 4.63281 13 6.32812 13 8.51562V13H12.9727Z" fill="white"/>
</svg>
